# xmcd CD database file
#
# Track frame offsets:
#	150
#	12016
#	24135
#	40994
#	45407
#	55428
#
# Disc length: 834 seconds
#
# Revision: 4
# Processed by: cddbd v1.5.2PL0 Copyright (c) Steve Scherf et al.
# Submitted via: CDex 2.23
#
DISCID=3c034006
DTITLE=Aaron Gillett - It is what it is
DYEAR=2019
DGENRE=Blues
TTITLE0=Urban Shuffle
TTITLE1=Juke
TTITLE2=Mean Old World
TTITLE3=Devil in the Woodpile
TTITLE4=Minor Swing
TTITLE5=Hole 3 Thang
EXTD=YEAR: 2019
EXTT0=
EXTT1=
EXTT2=
EXTT3=
EXTT4=
EXTT5=
PLAYORDER=
